<?xml version="1.0" encoding="windows-1252"?>
<!-- Generator: Adobe Illustrator 18.1.1, SVG Export Plug-In . SVG Version: 6.00 Build 0)  -->
<svg version="1.1" id="Capa_1" xmlns="http://www.w3.org/2000/svg" xmlns:xlink="http://www.w3.org/1999/xlink" x="0px" y="0px" viewBox="0 0 290 290" style="enable-background:new 0 0 290 290;" xml:space="preserve">
<g>
	<path id="circle34669" d="M165.862,46.682c-0.688-0.009-1.376-0.009-2.064,0.002c-13.223,0.207-26.518,4.065-38.291,11.84   c-5.703,3.645-0.079,12.159,5.512,8.344c27.088-17.889,63.28-11.773,82.986,14.023c19.706,25.797,16.09,62.324-8.293,83.754   c-24.383,21.43-61.073,20.33-84.127-2.525c-4.735-4.798-11.88,2.408-7.041,7.102c23.295,23.094,58.803,27.024,86.25,11.193   l53.785,61.211c1.906,2.169,5.248,2.278,7.291,0.236l26.666-26.666c2.016-2.016,1.941-5.306-0.164-7.229l-60.518-55.236   c13.22-24.202,11.725-54.835-5.902-77.91C208.123,56.718,187.193,46.961,165.862,46.682z M162.426,75.754   c-2.76,0.041-4.965,2.31-4.926,5.07v47.5h-7.5v-6.666c0.04-2.818-2.256-5.112-5.074-5.07c-2.76,0.041-4.965,2.31-4.926,5.07v6.666   h-7.5V92.492c0.04-2.818-2.256-5.112-5.074-5.07c-2.76,0.041-4.965,2.31-4.926,5.07v35.832h-7.5v-18.332   c0.04-2.818-2.256-5.112-5.074-5.07c-2.76,0.041-4.965,2.31-4.926,5.07v18.332h-7.5v-0.832c0.04-2.818-2.256-5.112-5.074-5.07   c-2.76,0.041-4.965,2.31-4.926,5.07v0.832h-25v-24.166c0.04-2.818-2.256-5.112-5.074-5.07c-2.76,0.041-4.965,2.31-4.926,5.07   v24.166h-25V86.658c0.04-2.818-2.256-5.112-5.074-5.07c-2.76,0.041-4.965,2.31-4.926,5.07v41.666h-7.5v-30   c0.04-2.818-2.256-5.112-5.074-5.07c-2.76,0.041-4.965,2.31-4.926,5.07v35c0,2.761,2.239,5,5,5h30v12.5   c-0.096,6.762,10.096,6.762,10,0v-12.5h25v12.5c-0.096,6.762,10.096,6.762,10,0v-12.5h100c2.761,0,5-2.239,5-5v-17.5   c0.096-6.762-10.096-6.762-10,0v12.5h-7.5v-47.5C167.54,78.006,165.244,75.712,162.426,75.754z M215.223,115.789   c-1.379,0.021-2.48,1.156-2.461,2.535c0,26.407-21.355,47.762-47.762,47.762c-3.381-0.048-3.381,5.048,0,5   c29.109,0,52.762-23.652,52.762-52.762C217.782,116.915,216.633,115.767,215.223,115.789z M222.368,161.264l43.764,39.943   l-18.584,17.27l-38.402-43.707c1.073-0.84,2.133-1.704,3.168-2.613C216.105,168.824,219.449,165.162,222.368,161.264z    M269.838,204.59l7.926,7.234l-19.195,19.195l-7.719-8.785L269.838,204.59z"/>
</g>
<g>
</g>
<g>
</g>
<g>
</g>
<g>
</g>
<g>
</g>
<g>
</g>
<g>
</g>
<g>
</g>
<g>
</g>
<g>
</g>
<g>
</g>
<g>
</g>
<g>
</g>
<g>
</g>
<g>
</g>
</svg>