<?xml version="1.0" encoding="UTF-8" standalone="no"?>
<!-- Created with Inkscape (http://www.inkscape.org/) -->

<svg
   xmlns:dc="http://purl.org/dc/elements/1.1/"
   xmlns:cc="http://creativecommons.org/ns#"
   xmlns:rdf="http://www.w3.org/1999/02/22-rdf-syntax-ns#"
   xmlns:svg="http://www.w3.org/2000/svg"
   xmlns="http://www.w3.org/2000/svg"
   xmlns:sodipodi="http://sodipodi.sourceforge.net/DTD/sodipodi-0.dtd"
   xmlns:inkscape="http://www.inkscape.org/namespaces/inkscape"
   width="210mm"
   height="297mm"
   id="svg2"
   version="1.1"
   inkscape:version="0.48.4 r9939"
   sodipodi:docname="logo.svg"
   inkscape:export-filename="/home/lleon95/GitHub/sensor_gas/LogoBulding/logo.png"
   inkscape:export-xdpi="299.9285"
   inkscape:export-ydpi="299.9285">
  <defs
     id="defs4" />
  <sodipodi:namedview
     id="base"
     pagecolor="#ffffff"
     bordercolor="#666666"
     borderopacity="1.0"
     inkscape:pageopacity="0.0"
     inkscape:pageshadow="2"
     inkscape:zoom="0.98994949"
     inkscape:cx="374.06006"
     inkscape:cy="569.85328"
     inkscape:document-units="px"
     inkscape:current-layer="layer2"
     showgrid="false"
     inkscape:window-width="1309"
     inkscape:window-height="744"
     inkscape:window-x="57"
     inkscape:window-y="24"
     inkscape:window-maximized="1" />
  <metadata
     id="metadata7">
    <rdf:RDF>
      <cc:Work
         rdf:about="">
        <dc:format>image/svg+xml</dc:format>
        <dc:type
           rdf:resource="http://purl.org/dc/dcmitype/StillImage" />
        <dc:title></dc:title>
      </cc:Work>
    </rdf:RDF>
  </metadata>
  <g
     inkscape:label="Capa 1"
     inkscape:groupmode="layer"
     id="layer1">
    <g
       id="g3538"
       transform="matrix(6.0676549,0,0,6.2527932,73.623197,417.65898)"
       inkscape:export-filename="/home/lleon95/GitHub/sensor_gas/LogoBulding/path4099.png"
       inkscape:export-xdpi="90"
       inkscape:export-ydpi="90">
      <g
         id="g3498">
        <path
           id="path3500"
           d="M 25.302,0 H 9.698 C 8.398,0 7.334,1.063 7.334,2.364 V 32.635 C 7.334,33.936 8.398,35 9.698,35 h 15.604 c 1.3,0 2.364,-1.062 2.364,-2.364 V 2.364 C 27.666,1.063 26.602,0 25.302,0 z M 15.004,1.704 h 4.992 c 0.158,0 0.286,0.128 0.286,0.287 0,0.158 -0.128,0.286 -0.286,0.286 h -4.992 c -0.158,0 -0.286,-0.128 -0.286,-0.286 0,-0.159 0.128,-0.287 0.286,-0.287 z M 17.5,33.818 c -0.653,0 -1.182,-0.529 -1.182,-1.183 0,-0.654 0.529,-1.182 1.182,-1.182 0.653,0 1.182,0.528 1.182,1.182 0,0.654 -0.529,1.183 -1.182,1.183 z m 8.521,-3.193 H 8.979 V 3.749 h 17.042 v 26.876 z"
           inkscape:connector-curvature="0" />
      </g>
      <g
         id="g3502" />
      <g
         id="g3504" />
      <g
         id="g3506" />
      <g
         id="g3508" />
      <g
         id="g3510" />
      <g
         id="g3512" />
      <g
         id="g3514" />
      <g
         id="g3516" />
      <g
         id="g3518" />
      <g
         id="g3520" />
      <g
         id="g3522" />
      <g
         id="g3524" />
      <g
         id="g3526" />
      <g
         id="g3528" />
      <g
         id="g3530" />
    </g>
  </g>
  <g
     inkscape:groupmode="layer"
     id="layer4"
     inkscape:label="Glass">
    <g
       id="g3695"
       transform="matrix(0.38916505,0,0,0.37525065,133.54168,486.32731)"
       inkscape:export-filename="/home/lleon95/GitHub/sensor_gas/LogoBulding/path4099.png"
       inkscape:export-xdpi="90"
       inkscape:export-ydpi="90">
      <g
         id="g3656">
        <path
           d="m 165.862,46.682 c -0.688,-0.009 -1.376,-0.009 -2.064,0.002 -13.223,0.207 -26.518,4.065 -38.291,11.84 -5.703,3.645 -0.079,12.159 5.512,8.344 27.088,-17.889 63.28,-11.773 82.986,14.023 19.706,25.797 16.09,62.324 -8.293,83.754 -24.383,21.43 -61.073,20.33 -84.127,-2.525 -4.735,-4.798 -11.88,2.408 -7.041,7.102 23.295,23.094 58.803,27.024 86.25,11.193 l 53.785,61.211 c 1.906,2.169 5.248,2.278 7.291,0.236 l 26.666,-26.666 c 2.016,-2.016 1.941,-5.306 -0.164,-7.229 l -60.518,-55.236 c 13.22,-24.202 11.725,-54.835 -5.902,-77.91 -13.829,-18.103 -34.759,-27.86 -56.09,-28.139 z m -3.436,29.072 c -2.76,0.041 -4.965,2.31 -4.926,5.07 v 47.5 H 150 v -6.666 c 0.04,-2.818 -2.256,-5.112 -5.074,-5.07 -2.76,0.041 -4.965,2.31 -4.926,5.07 v 6.666 h -7.5 V 92.492 c 0.04,-2.818 -2.256,-5.112 -5.074,-5.07 -2.76,0.041 -4.965,2.31 -4.926,5.07 v 35.832 H 115 v -18.332 c 0.04,-2.818 -2.256,-5.112 -5.074,-5.07 -2.76,0.041 -4.965,2.31 -4.926,5.07 v 18.332 h -7.5 v -0.832 c 0.04,-2.818 -2.256,-5.112 -5.074,-5.07 -2.76,0.041 -4.965,2.31 -4.926,5.07 v 0.832 h -25 v -24.166 c 0.04,-2.818 -2.256,-5.112 -5.074,-5.07 -2.76,0.041 -4.965,2.31 -4.926,5.07 v 24.166 h -25 V 86.658 c 0.04,-2.818 -2.256,-5.112 -5.074,-5.07 -2.76,0.041 -4.965,2.31 -4.926,5.07 v 41.666 H 10 v -30 c 0.04,-2.818 -2.256,-5.112 -5.074,-5.07 -2.76,0.041 -4.965,2.31 -4.926,5.07 v 35 c 0,2.761 2.239,5 5,5 h 30 v 12.5 c -0.096,6.762 10.096,6.762 10,0 v -12.5 h 25 v 12.5 c -0.096,6.762 10.096,6.762 10,0 v -12.5 h 100 c 2.761,0 5,-2.239 5,-5 v -17.5 c 0.096,-6.762 -10.096,-6.762 -10,0 v 12.5 h -7.5 v -47.5 c 0.04,-2.818 -2.256,-5.112 -5.074,-5.07 z m 52.797,40.035 c -1.379,0.021 -2.48,1.156 -2.461,2.535 0,26.407 -21.355,47.762 -47.762,47.762 -3.381,-0.048 -3.381,5.048 0,5 29.109,0 52.762,-23.652 52.762,-52.762 0.02,-1.409 -1.129,-2.557 -2.539,-2.535 z m 7.145,45.475 43.764,39.943 -18.584,17.27 -38.402,-43.707 c 1.073,-0.84 2.133,-1.704 3.168,-2.613 3.791,-3.333 7.135,-6.995 10.054,-10.893 z m 47.47,43.326 7.926,7.234 -19.195,19.195 -7.719,-8.785 18.988,-17.644 z"
           id="circle34669"
           inkscape:connector-curvature="0" />
      </g>
      <g
         id="g3659" />
      <g
         id="g3661" />
      <g
         id="g3663" />
      <g
         id="g3665" />
      <g
         id="g3667" />
      <g
         id="g3669" />
      <g
         id="g3671" />
      <g
         id="g3673" />
      <g
         id="g3675" />
      <g
         id="g3677" />
      <g
         id="g3679" />
      <g
         id="g3681" />
      <g
         id="g3683" />
      <g
         id="g3685" />
      <g
         id="g3687" />
    </g>
    <path
       style="fill:#ffffff"
       d="m 222.47317,559.95664 -7.31234,-8.01857 1.15158,-0.96873 c 0.63337,-0.53279 1.73144,-1.60591 2.44016,-2.3847 1.18843,-1.30593 1.32743,-1.3883 1.78844,-1.0599 0.92358,0.65793 16.24237,14.21483 16.22325,14.35734 -0.0224,0.16677 -6.50046,5.91638 -6.78408,6.0212 -0.10707,0.0396 -3.48523,-3.53642 -7.50701,-7.94664 z"
       id="path4095"
       inkscape:connector-curvature="0"
       inkscape:export-filename="/home/lleon95/GitHub/sensor_gas/LogoBulding/path4099.png"
       inkscape:export-xdpi="90"
       inkscape:export-ydpi="90" />
    <path
       style="fill:#ffffff"
       d="m 232.74209,571.21647 c -1.1095,-1.27562 -1.27284,-1.58236 -0.98101,-1.8423 0.19257,-0.17153 1.48654,-1.32246 2.8755,-2.55762 1.38896,-1.23516 2.83378,-2.52382 3.21072,-2.86368 l 0.68534,-0.61793 1.41887,1.21218 1.41887,1.21218 -2.23048,2.25392 c -1.22676,1.23965 -2.86862,2.81186 -3.64858,3.4938 l -1.4181,1.23989 -1.33113,-1.53044 0,0 z"
       id="path4097"
       inkscape:connector-curvature="0"
       inkscape:export-filename="/home/lleon95/GitHub/sensor_gas/LogoBulding/path4099.png"
       inkscape:export-xdpi="90"
       inkscape:export-ydpi="90" />
  </g>
  <g
     inkscape:groupmode="layer"
     id="layer3"
     inkscape:label="Steam">
    <g
       id="g3141"
       transform="matrix(0.66836743,0,0,0.76190473,129.96934,480.32905)"
       inkscape:export-filename="/home/lleon95/GitHub/sensor_gas/LogoBulding/path4099.png"
       inkscape:export-xdpi="90"
       inkscape:export-ydpi="90">
      <path
         id="path3103"
         d="M 25,46 H 10.845 C 4.865,46 0,41.135 0,35.154 0,31 2.705,26.688 6.433,24.901 L 7,24.63 V 24 c 0,-0.127 0.008,-0.256 0.015,-0.386 l 0.009,-0.16 -0.012,-0.21 C 7.006,23.163 7,23.082 7,23 c 0,-3.859 3.141,-7 7,-7 0.309,0 0.614,0.027 0.917,0.067 0.078,0.01 0.156,0.023 0.233,0.036 0.267,0.044 0.53,0.102 0.789,0.177 0.035,0.01 0.071,0.017 0.106,0.027 0.285,0.087 0.563,0.197 0.835,0.321 0.071,0.032 0.14,0.067 0.21,0.101 0.24,0.119 0.475,0.249 0.702,0.396 C 19.719,18.373 21,20.538 21,23 c 0,0.553 0.447,1 1,1 0.553,0 1,-0.447 1,-1 0,-2.754 -1.246,-5.219 -3.2,-6.871 C 22.667,12.379 27.388,10 32.085,10 c 7.745,0 14.177,6.135 14.848,13.888 -1.022,-0.072 -2.552,-0.109 -4.083,0.124 -0.546,0.083 -0.921,0.593 -0.838,1.139 0.075,0.495 0.501,0.85 0.987,0.85 0.05,0 0.101,-0.004 0.151,-0.012 2.227,-0.337 4.548,-0.021 4.684,-0.002 C 52.49,26.872 56,31.161 56,35.972 56,41.501 51.501,46 45.972,46 H 33 25 z"
         inkscape:connector-curvature="0" />
      <g
         id="g3105" />
      <g
         id="g3107" />
      <g
         id="g3109" />
      <g
         id="g3111" />
      <g
         id="g3113" />
      <g
         id="g3115" />
      <g
         id="g3117" />
      <g
         id="g3119" />
      <g
         id="g3121" />
      <g
         id="g3123" />
      <g
         id="g3125" />
      <g
         id="g3127" />
      <g
         id="g3129" />
      <g
         id="g3131" />
      <g
         id="g3133" />
    </g>
  </g>
  <g
     inkscape:groupmode="layer"
     id="layer2"
     inkscape:label="Shield"
     style="display:inline">
    <g
       id="g3363"
       transform="matrix(0.90874478,0,0,0.84224143,164.88481,609.0152)"
       inkscape:export-filename="/home/lleon95/GitHub/sensor_gas/LogoBulding/path4099.png"
       inkscape:export-xdpi="90"
       inkscape:export-ydpi="90">
      <g
         id="g3291">
        <path
           id="path3293"
           d="m 23.112,9.35 c -4.473,2.742 -7.697,6.205 -9.006,7.744 L 10.745,14.461 C 10.656,14.397 8.811,16.035 8.86,16.086 l 6.121,6.223 c 0.045,0.051 0.107,0.074 0.174,0.074 0.012,0 0.031,0 0.047,-0.004 0.08,-0.018 0.148,-0.072 0.178,-0.152 0.986,-2.521 4.242,-7.799 8.4,-11.627 0.074,-0.07 0.1,-0.18 0.059,-0.275 C 23.838,10.324 23.174,9.312 23.112,9.35 z"
           inkscape:connector-curvature="0" />
        <path
           id="path3295"
           d="M 27.126,3.842 C 17.858,3.842 16.29,0.324 16.276,0.291 16.208,0.119 16.04,0.004 15.85,0 15.85,0 15.846,0 15.842,0 15.658,0 15.488,0.115 15.414,0.283 15.403,0.32 13.801,3.842 4.568,3.842 4.31,3.842 4.106,4.051 4.106,4.303 v 15.764 c 0,6.453 11.084,11.383 11.553,11.59 0.062,0.027 0.121,0.037 0.188,0.037 0.061,0 0.127,-0.01 0.186,-0.037 0.473,-0.207 11.555,-5.137 11.555,-11.59 V 4.303 C 27.586,4.051 27.381,3.842 27.126,3.842 z M 25.038,19.15 c 0,5.049 -8.678,8.912 -9.047,9.072 -0.045,0.023 -0.098,0.031 -0.145,0.031 -0.051,0 -0.098,-0.008 -0.146,-0.031 C 15.335,28.062 6.654,24.199 6.654,19.15 V 6.811 c 0,-0.199 0.161,-0.363 0.362,-0.363 7.229,0 8.482,-2.756 8.494,-2.783 0.057,-0.133 0.189,-0.223 0.334,-0.223 0.002,0 0.006,0 0.006,0 0.148,0.002 0.279,0.092 0.332,0.229 0.012,0.025 1.24,2.777 8.494,2.777 0.201,0 0.361,0.164 0.361,0.363 l 0.001,12.339 0,0 z"
           inkscape:connector-curvature="0" />
        <g
           id="g3297" />
        <g
           id="g3299" />
        <g
           id="g3301" />
        <g
           id="g3303" />
        <g
           id="g3305" />
        <g
           id="g3307" />
        <g
           id="g3309" />
        <g
           id="g3311" />
        <g
           id="g3313" />
        <g
           id="g3315" />
        <g
           id="g3317" />
        <g
           id="g3319" />
        <g
           id="g3321" />
        <g
           id="g3323" />
        <g
           id="g3325" />
      </g>
      <g
         id="g3327" />
      <g
         id="g3329" />
      <g
         id="g3331" />
      <g
         id="g3333" />
      <g
         id="g3335" />
      <g
         id="g3337" />
      <g
         id="g3339" />
      <g
         id="g3341" />
      <g
         id="g3343" />
      <g
         id="g3345" />
      <g
         id="g3347" />
      <g
         id="g3349" />
      <g
         id="g3351" />
      <g
         id="g3353" />
      <g
         id="g3355" />
    </g>
    <flowRoot
       xml:space="preserve"
       id="flowRoot3921"
       style="font-size:40px;font-style:normal;font-weight:normal;line-height:125%;letter-spacing:0px;word-spacing:0px;fill:#000000;fill-opacity:1;stroke:none;font-family:Sans"
       transform="translate(0,17.714286)"
       inkscape:export-filename="/home/lleon95/GitHub/sensor_gas/LogoBulding/path4099.png"
       inkscape:export-xdpi="90"
       inkscape:export-ydpi="90"><flowRegion
         id="flowRegion3923"><rect
           id="rect3925"
           width="468.75854"
           height="190.59172"
           x="267.85715"
           y="451.64789" /></flowRegion><flowPara
         id="flowPara3933"><flowSpan
           style="font-size:60px"
           id="flowSpan3958"><flowSpan
             style="font-size:70px"
             id="flowSpan3960"><flowSpan
               style="font-size:100px"
               id="flowSpan3994"><flowSpan
                 style="font-size:80px"
                 id="flowSpan4101">SafetyApp</flowSpan></flowSpan></flowSpan></flowSpan></flowPara><flowPara
         id="flowPara3929" /><flowPara
         id="flowPara3935" /></flowRoot>    <flowRoot
       xml:space="preserve"
       id="flowRoot3937"
       style="font-size:40px;font-style:normal;font-weight:normal;line-height:125%;letter-spacing:0px;word-spacing:0px;fill:#000000;fill-opacity:1;stroke:none;font-family:Sans"><flowRegion
         id="flowRegion3939"><rect
           id="rect3941"
           width="42.142857"
           height="46.42857"
           x="304.28571"
           y="403.07648" /></flowRegion><flowPara
         id="flowPara3943"></flowPara></flowRoot>    <flowRoot
       xml:space="preserve"
       id="flowRoot3962"
       style="font-size:20px;font-style:normal;font-weight:normal;line-height:125%;letter-spacing:0px;word-spacing:0px;fill:#000000;fill-opacity:1;stroke:none;font-family:Sans"><flowRegion
         id="flowRegion3964"><rect
           id="rect3966"
           width="195.71428"
           height="55.714287"
           x="294.28571"
           y="551.64789"
           style="font-size:20px" /></flowRegion><flowPara
         id="flowPara3968"></flowPara></flowRoot>    <flowRoot
       xml:space="preserve"
       id="flowRoot3970"
       style="font-size:20px;font-style:normal;font-weight:normal;line-height:125%;letter-spacing:0px;word-spacing:0px;fill:#000000;fill-opacity:1;stroke:none;font-family:Sans"><flowRegion
         id="flowRegion3972"><rect
           id="rect3974"
           width="223.57143"
           height="60.714287"
           x="274.28571"
           y="559.50507"
           style="font-size:20px" /></flowRegion><flowPara
         id="flowPara3976"></flowPara></flowRoot>    <flowRoot
       xml:space="preserve"
       id="flowRoot3978"
       style="font-size:20px;font-style:normal;font-weight:normal;line-height:125%;letter-spacing:0px;word-spacing:0px;fill:#000000;fill-opacity:1;stroke:none;font-family:Sans"
       transform="translate(-2.3879612,8.3263252)"
       inkscape:export-filename="/home/lleon95/GitHub/sensor_gas/LogoBulding/path4099.png"
       inkscape:export-xdpi="90"
       inkscape:export-ydpi="90"><flowRegion
         id="flowRegion3980"><rect
           id="rect3982"
           width="333.57141"
           height="77.857132"
           x="278.57144"
           y="562.36218" /></flowRegion><flowPara
         id="flowPara3984"
         style="font-size:30px">Monitoring System</flowPara></flowRoot>    <path
       style="fill:#ffffff"
       d="m 176.41453,631.02908 c -4.90869,-3.00438 -5.34817,-3.91702 -5.34817,-11.10622 l 0,-5.28187 1.39052,-0.002 c 1.91591,-0.003 4.59068,-0.75604 5.94183,-1.67254 0.98996,-0.67149 1.1932,-0.69101 1.65572,-0.15911 0.61858,0.71134 4.33077,1.83393 6.06448,1.83393 l 1.20591,0 0,5.77068 c 0,6.60341 -0.2988,7.42092 -3.51194,9.60858 -1.61118,1.09696 -4.33772,2.59498 -4.70301,2.58392 -0.0705,-0.002 -1.28341,-0.71092 -2.69534,-1.57509 z m 3.97752,-5.37302 c 0.77572,-1.34779 2.58801,-3.65199 4.02732,-5.12045 2.27728,-2.32341 2.53698,-2.74621 2.00101,-3.25774 -0.53598,-0.51153 -0.89207,-0.40813 -2.74375,0.79667 -1.17031,0.76147 -2.97454,2.21851 -4.00939,3.23786 l -1.88155,1.85338 -1.36774,-0.99565 c -1.58196,-1.15159 -1.84589,-1.18387 -2.98115,-0.36461 -0.80443,0.58051 -0.71806,0.72088 2.12779,3.45792 1.63145,1.56907 3.0677,2.85067 3.19167,2.84801 0.12397,-0.003 0.86007,-1.10759 1.63579,-2.45539 z"
       id="path4099"
       inkscape:connector-curvature="0"
       inkscape:export-xdpi="90"
       inkscape:export-ydpi="90" />
  </g>
</svg>
